# xmcd CD database file
#
# Track frame offsets:
#	150
#	22611
#	58057
#	84437
#	107012
#	136500
#	157612
#	180771
#
# Disc length: 2576 seconds
#
# Revision: 0
# Processed by: cddbd v1.5.2PL0 Copyright (c) Steve Scherf et al.
# Submitted via: CDex 1.70beta2
#
DISCID=440a0e08
DTITLE=Nils Petter Molvær - Khmer
DYEAR=1998
DGENRE=Jazz
TTITLE0=Khmer
TTITLE1=Tløn
TTITLE2=Access - Song Of Sand I
TTITLE3=On Stream
TTITLE4=Platonic Years
TTITLE5=Phum
TTITLE6=Song Of Sand II
TTITLE7=Exit
EXTD=YEAR: 1998
EXTT0=
EXTT1=
EXTT2=
EXTT3=
EXTT4=
EXTT5=
EXTT6=
EXTT7=
PLAYORDER=
